<svg width="22" height="24" viewBox="0 0 22 24" fill="none" xmlns="http://www.w3.org/2000/svg">
<path d="M10.5672 12C12.1686 12 13.7045 11.3679 14.8369 10.2426C15.9694 9.11742 16.6055 7.5913 16.6055 6C16.6055 4.4087 15.9694 2.88258 14.8369 1.75736C13.7045 0.632141 12.1686 0 10.5672 0C8.96569 0 7.4298 0.632141 6.29738 1.75736C5.16497 2.88258 4.52878 4.4087 4.52878 6C4.52878 7.5913 5.16497 9.11742 6.29738 10.2426C7.4298 11.3679 8.96569 12 10.5672 12ZM8.41127 14.25C3.76455 14.25 0 17.9906 0 22.6078C0 23.3766 0.627425 24 1.40109 24H19.7332C20.5069 24 21.1343 23.3766 21.1343 22.6078C21.1343 17.9906 17.3698 14.25 12.7231 14.25H8.41127Z" fill="#57328A"/>
</svg>
